HIERARCHY
ROOT root
{
	OFFSET	0	13.1	24.9
	CHANNELS 6  Xposition Yposition Zposition Xrotation Yrotation Zrotation
	JOINT spine_1
	{
		OFFSET	0	9.99999	0
		CHANNELS 3  Xrotation Yrotation Zrotation
		JOINT spine_2
		{
			OFFSET	0	112	-10
			CHANNELS 3  Xrotation Yrotation Zrotation
			JOINT spine_3
			{
				OFFSET	0	206.5	19.3
				CHANNELS 3  Xrotation Yrotation Zrotation
				JOINT spine_4
				{
					OFFSET	0	110.4	14.6
					CHANNELS 3  Xrotation Yrotation Zrotation
					JOINT neck_1
					{
						OFFSET	0	71.8	-50.3
						CHANNELS 3  Xrotation Yrotation Zrotation
						JOINT neck_2
						{
							OFFSET	0	86.2	-25.8
							CHANNELS 3  Xrotation Yrotation Zrotation
							JOINT head_ee
							{
								OFFSET	0	179.8	-8.7
								CHANNELS 3  Xrotation Yrotation Zrotation
								End Site
								{
									OFFSET	1	0	0
								}
							}
						}
					}
					JOINT left_clavicle
					{
						OFFSET	-43.2	22.4	-70.8
						CHANNELS 3  Xrotation Yrotation Zrotation
						JOINT left_shoulder
						{
							OFFSET	-93.9	-5.79999	48.7
							CHANNELS 3  Xrotation Yrotation Zrotation
							JOINT left_elbow
							{
								OFFSET	-291.4	-30.8	15.2
								CHANNELS 3  Xrotation Yrotation Zrotation
								JOINT left_lowarm_twist
								{
									OFFSET	-110.7	-3.89999	13.6
									CHANNELS 3  Xrotation Yrotation Zrotation
									JOINT left_hand
									{
										OFFSET	-110.7	-3.89999	13.6
										CHANNELS 3  Xrotation Yrotation Zrotation
										JOINT left_ee
										{
											OFFSET	-80.8	-5.10001	12.1
											CHANNELS 3  Xrotation Yrotation Zrotation
											End Site
											{
												OFFSET	1	0	0
											}
										}
									}
								}
							}
						}
					}
					JOINT right_clavicle
					{
						OFFSET	43.2	22.4	-70.8
						CHANNELS 3  Xrotation Yrotation Zrotation
						JOINT right_shoulder
						{
							OFFSET	93.9	-5.79999	48.7
							CHANNELS 3  Xrotation Yrotation Zrotation
							JOINT right_elbow
							{
								OFFSET	291.4	-30.8	15.2
								CHANNELS 3  Xrotation Yrotation Zrotation
								JOINT right_lowarm_twist
								{
									OFFSET	110.7	-3.89999	13.6
									CHANNELS 3  Xrotation Yrotation Zrotation
									JOINT right_hand
									{
										OFFSET	110.7	-3.89999	13.6
										CHANNELS 3  Xrotation Yrotation Zrotation
										JOINT right_ee
										{
											OFFSET	80.8	-5.10001	12.1
											CHANNELS 3  Xrotation Yrotation Zrotation
											End Site
											{
												OFFSET	1	0	0
											}
										}
									}
								}
							}
						}
					}
				}
			}
		}
	}
	JOINT left_hip
	{
		OFFSET	-82.8	-127.5	0.300001
		CHANNELS 3  Xrotation Yrotation Zrotation
		JOINT left_knee
		{
			OFFSET	-28.2	-396.7	2.2
			CHANNELS 3  Xrotation Yrotation Zrotation
			JOINT left_ankle
			{
				OFFSET	-11.7	-411.3	35.4
				CHANNELS 3  Xrotation Yrotation Zrotation
				JOINT left_toes
				{
					OFFSET	0	-60	-88.6
					CHANNELS 3  Xrotation Yrotation Zrotation
					JOINT left_foot_ee
					{
						OFFSET	-22.5	-16.5	-42.2
						CHANNELS 3  Xrotation Yrotation Zrotation
						End Site
						{
							OFFSET	1	0	0
						}
					}
				}
			}
		}
	}
	JOINT right_hip
	{
		OFFSET	82.8	-127.5	0.300001
		CHANNELS 3  Xrotation Yrotation Zrotation
		JOINT right_knee
		{
			OFFSET	28.2	-396.7	2.2
			CHANNELS 3  Xrotation Yrotation Zrotation
			JOINT right_ankle
			{
				OFFSET	11.7	-411.3	35.4
				CHANNELS 3  Xrotation Yrotation Zrotation
				JOINT right_toes
				{
					OFFSET	0	-60	-88.6
					CHANNELS 3  Xrotation Yrotation Zrotation
					JOINT right_foot_ee
					{
						OFFSET	22.5	-16.5	-42.2
						CHANNELS 3  Xrotation Yrotation Zrotation
						End Site
						{
							OFFSET	1	0	0
						}
					}
				}
			}
		}
	}
}
MOTION
Frames: 14
Frame Time: 0.02
3574.42 741.953 -1474.73 4.37087207277 80.8807117036 -11.1227407471 -0.739171 0.619339 3.83034 -0.731088 0.374536 3.86192 -0.699867 -0.493014 3.84861 -0.720512 0.120516 3.87814 -6.96347 15.5864 -3.04592 -6.90973 31.161 0.156955 -0.0 0.0 -0.0 -2.92206 11.9123 -3.51392 -4.55109 -23.4263 68.9884 1.0699 -27.9228 0.265998 -30.381 -1.99101 3.2878 -1.87412 21.4305 -2.39075 -0.0 0.0 -0.0 12.5681 21.5101 -25.1271 -9.8791 12.0318 -68.058 0.280381 7.90755 -0.0193789 85.1824 4.44838 8.87451 -0.372514 7.8514 5.85771 0.0 0.0 0.0 -13.1725 1.80062 10.3772 -1.00082 0.0399135 0.1484 25.1407 20.8949 -3.4528 -31.9539 0.0 0.0 -0.0 0.0 -0.0 4.24177 -10.3849 7.9465 -9.66177 -0.275636 -1.45541 30.3879 18.6399 4.3236 -14.5826 0.0 0.0 0.0 0.0 0.0 
3575.05728419 743.711 -1475.46970863 4.08127615147 79.4687686889 -11.0169900774 -0.832438 0.618363 3.86382 -0.824211 0.371436 3.89527 -0.792682 -0.509765 3.87962 -0.813665 0.10886 3.9114 -6.70287 15.9322 -1.96612 -6.64469 31.0099 1.23885 -0.0 0.0 -0.0 -3.14764 12.1916 -3.84241 -3.99016 -23.2887 69.0049 1.16558 -30.0009 0.312336 -30.2712 -1.98083 3.27808 -1.93473 21.3441 -2.78746 -0.0 0.0 -0.0 12.8276 22.1252 -25.6757 -11.1058 12.0589 -68.0634 0.240757 6.80135 -0.0143064 85.0912 4.43745 8.87033 -0.173937 7.69182 4.44329 0.0 0.0 0.0 -12.6529 1.8187 10.4865 -2.09269 0.0804905 0.311053 25.5163 20.6156 -3.49376 -31.5442 0.0 0.0 -0.0 0.0 -0.0 4.28102 -9.83519 8.03691 -9.57455 -0.274251 -1.44209 29.634 18.1382 4.22097 -13.9304 0.0 0.0 0.0 0.0 0.0 
3572.49923417 742.105 -1477.69820798 2.0873114855 77.9917906112 -9.49026433654 -0.839549 0.64 3.90879 -0.831135 0.390175 3.94152 -0.797824 -0.502184 3.92884 -0.819337 0.124103 3.95882 -6.40843 16.0788 -1.62772 -6.32285 31.0058 1.52328 -0.0 0.0 -0.0 -3.41832 12.4639 -4.24564 -3.50469 -23.0618 69.0812 1.24659 -31.695 0.35388 -30.1115 -1.96606 3.2639 -1.93881 21.1466 -2.90701 -0.0 0.0 -0.0 12.765 22.5967 -25.4884 -11.5596 11.6316 -68.4269 0.222843 6.29953 -0.0122629 84.8755 4.41162 8.86037 0.0242303 7.74472 3.12507 0.0 0.0 0.0 -11.9196 1.83042 10.6889 -2.69431 0.10152 0.400988 26.116 20.988 -3.5713 -30.9567 0.0 0.0 -0.0 0.0 -0.0 4.27631 -9.20046 8.16453 -9.54939 -0.273848 -1.43825 30.4318 17.3834 4.2866 -13.1214 0.0 0.0 0.0 0.0 0.0 
3569.6800862 740.635 -1477.23799067 1.45946966522 75.621527252 -8.76443195111 -0.752131 0.605786 3.91306 -0.743684 0.355759 3.94361 -0.712993 -0.530456 3.92396 -0.734462 0.0954149 3.95845 -5.9869 15.9947 -1.8027 -5.84968 30.9241 1.20671 -0.0 0.0 -0.0 -3.84916 13.0458 -4.84967 -3.22495 -22.6213 69.3549 1.35373 -33.844 0.41188 -29.7221 -1.9302 3.22915 -1.90637 21.0046 -2.78496 -0.0 0.0 -0.0 12.7445 23.3559 -25.3697 -12.0346 11.5627 -68.7422 0.210875 5.9637 -0.0109845 84.2157 4.33286 8.82933 0.3659 8.11291 0.9736 0.0 0.0 0.0 -11.1033 1.88606 10.0392 -4.97437 0.17261 0.743665 28.0339 22.1173 -3.81718 -29.9413 0.0 0.0 -0.0 0.0 -0.0 3.90748 -7.54454 8.45463 -9.37387 -0.270989 -1.41147 29.3803 17.791 4.18058 -12.3829 0.0 0.0 0.0 0.0 0.0 
3569.72432423 740.635 -1477.31987048 1.36713490695 74.6274559495 -8.66889896698 -0.752131 0.605786 3.91306 -0.743684 0.355759 3.94361 -0.712993 -0.530456 3.92396 -0.734462 0.0954149 3.95845 -5.9869 15.9947 -1.8027 -5.84968 30.9241 1.20671 -0.0 0.0 -0.0 -3.84916 13.0458 -4.84967 -3.22495 -22.6213 69.3549 1.35373 -33.844 0.41188 -29.7221 -1.9302 3.22915 -1.90637 21.0046 -2.78496 -0.0 0.0 -0.0 12.7445 23.3559 -25.3697 -12.0346 11.5627 -68.7422 0.210875 5.9637 -0.0109845 84.2157 4.33286 8.82933 0.3659 8.11291 0.9736 0.0 0.0 0.0 -11.1033 1.88606 10.0392 -4.97437 0.17261 0.743665 28.0339 22.1173 -3.81718 -29.9413 0.0 0.0 -0.0 0.0 -0.0 3.90748 -7.54454 8.45463 -9.37387 -0.270989 -1.41147 29.3803 17.791 4.18058 -12.3829 0.0 0.0 0.0 0.0 0.0 
3569.77356483 740.635 -1477.40720754 1.28030245332 73.5564848219 -8.5786126016 -0.752131 0.605786 3.91306 -0.743684 0.355759 3.94361 -0.712993 -0.530456 3.92396 -0.734462 0.0954149 3.95845 -5.9869 15.9947 -1.8027 -5.84968 30.9241 1.20671 -0.0 0.0 -0.0 -3.84916 13.0458 -4.84967 -3.22495 -22.6213 69.3549 1.35373 -33.844 0.41188 -29.7221 -1.9302 3.22915 -1.90637 21.0046 -2.78496 -0.0 0.0 -0.0 12.7445 23.3559 -25.3697 -12.0346 11.5627 -68.7422 0.210875 5.9637 -0.0109845 84.2157 4.33286 8.82933 0.3659 8.11291 0.9736 0.0 0.0 0.0 -11.1033 1.88606 10.0392 -4.97437 0.17261 0.743665 28.0339 22.1173 -3.81718 -29.9413 0.0 0.0 -0.0 0.0 -0.0 3.90748 -7.54454 8.45463 -9.37387 -0.270989 -1.41147 29.3803 17.791 4.18058 -12.3829 0.0 0.0 0.0 0.0 0.0 
3569.83143232 740.635 -1477.5052201 1.19466785818 72.3406352681 -8.48904563266 -0.752131 0.605786 3.91306 -0.743684 0.355759 3.94361 -0.712993 -0.530456 3.92396 -0.734462 0.0954149 3.95845 -5.9869 15.9947 -1.8027 -5.84968 30.9241 1.20671 -0.0 0.0 -0.0 -3.84916 13.0458 -4.84967 -3.22495 -22.6213 69.3549 1.35373 -33.844 0.41188 -29.7221 -1.9302 3.22915 -1.90637 21.0046 -2.78496 -0.0 0.0 -0.0 12.7445 23.3559 -25.3697 -12.0346 11.5627 -68.7422 0.210875 5.9637 -0.0109845 84.2157 4.33286 8.82933 0.3659 8.11291 0.9736 0.0 0.0 0.0 -11.1033 1.88606 10.0392 -4.97437 0.17261 0.743665 28.0339 22.1173 -3.81718 -29.9413 0.0 0.0 -0.0 0.0 -0.0 3.90748 -7.54454 8.45463 -9.37387 -0.270989 -1.41147 29.3803 17.791 4.18058 -12.3829 0.0 0.0 0.0 0.0 0.0 
3569.90750969 740.635 -1477.62727996 1.10221958608 70.8041780154 -8.39160952797 -0.752131 0.605786 3.91306 -0.743684 0.355759 3.94361 -0.712993 -0.530456 3.92396 -0.734462 0.0954149 3.95845 -5.9869 15.9947 -1.8027 -5.84968 30.9241 1.20671 -0.0 0.0 -0.0 -3.84916 13.0458 -4.84967 -3.22495 -22.6213 69.3549 1.35373 -33.844 0.41188 -29.7221 -1.9302 3.22915 -1.90637 21.0046 -2.78496 -0.0 0.0 -0.0 12.7445 23.3559 -25.3697 -12.0346 11.5627 -68.7422 0.210875 5.9637 -0.0109845 84.2157 4.33286 8.82933 0.3659 8.11291 0.9736 0.0 0.0 0.0 -11.1033 1.88606 10.0392 -4.97437 0.17261 0.743665 28.0339 22.1173 -3.81718 -29.9413 0.0 0.0 -0.0 0.0 -0.0 3.90748 -7.54454 8.45463 -9.37387 -0.270989 -1.41147 29.3803 17.791 4.18058 -12.3829 0.0 0.0 0.0 0.0 0.0 
3570.00245653 740.635 -1477.77008383 1.00998350988 68.9721637447 -8.29339653571 -0.752131 0.605786 3.91306 -0.743684 0.355759 3.94361 -0.712993 -0.530456 3.92396 -0.734462 0.0954149 3.95845 -5.9869 15.9947 -1.8027 -5.84968 30.9241 1.20671 -0.0 0.0 -0.0 -3.84916 13.0458 -4.84967 -3.22495 -22.6213 69.3549 1.35373 -33.844 0.41188 -29.7221 -1.9302 3.22915 -1.90637 21.0046 -2.78496 -0.0 0.0 -0.0 12.7445 23.3559 -25.3697 -12.0346 11.5627 -68.7422 0.210875 5.9637 -0.0109845 84.2157 4.33286 8.82933 0.3659 8.11291 0.9736 0.0 0.0 0.0 -11.1033 1.88606 10.0392 -4.97437 0.17261 0.743665 28.0339 22.1173 -3.81718 -29.9413 0.0 0.0 -0.0 0.0 -0.0 3.90748 -7.54454 8.45463 -9.37387 -0.270989 -1.41147 29.3803 17.791 4.18058 -12.3829 0.0 0.0 0.0 0.0 0.0 
3570.14785374 740.635 -1477.97122913 0.902344721341 66.3204878413 -8.17704305259 -0.752131 0.605786 3.91306 -0.743684 0.355759 3.94361 -0.712993 -0.530456 3.92396 -0.734462 0.0954149 3.95845 -5.9869 15.9947 -1.8027 -5.84968 30.9241 1.20671 -0.0 0.0 -0.0 -3.84916 13.0458 -4.84967 -3.22495 -22.6213 69.3549 1.35373 -33.844 0.41188 -29.7221 -1.9302 3.22915 -1.90637 21.0046 -2.78496 -0.0 0.0 -0.0 12.7445 23.3559 -25.3697 -12.0346 11.5627 -68.7422 0.210875 5.9637 -0.0109845 84.2157 4.33286 8.82933 0.3659 8.11291 0.9736 0.0 0.0 0.0 -11.1033 1.88606 10.0392 -4.97437 0.17261 0.743665 28.0339 22.1173 -3.81718 -29.9413 0.0 0.0 -0.0 0.0 -0.0 3.90748 -7.54454 8.45463 -9.37387 -0.270989 -1.41147 29.3803 17.791 4.18058 -12.3829 0.0 0.0 0.0 0.0 0.0 
3570.36691339 740.635 -1478.24130873 0.787601415426 62.6047185199 -8.04994291112 -0.752131 0.605786 3.91306 -0.743684 0.355759 3.94361 -0.712993 -0.530456 3.92396 -0.734462 0.0954149 3.95845 -5.9869 15.9947 -1.8027 -5.84968 30.9241 1.20671 -0.0 0.0 -0.0 -3.84916 13.0458 -4.84967 -3.22495 -22.6213 69.3549 1.35373 -33.844 0.41188 -29.7221 -1.9302 3.22915 -1.90637 21.0046 -2.78496 -0.0 0.0 -0.0 12.7445 23.3559 -25.3697 -12.0346 11.5627 -68.7422 0.210875 5.9637 -0.0109845 84.2157 4.33286 8.82933 0.3659 8.11291 0.9736 0.0 0.0 0.0 -11.1033 1.88606 10.0392 -4.97437 0.17261 0.743665 28.0339 22.1173 -3.81718 -29.9413 0.0 0.0 -0.0 0.0 -0.0 3.90748 -7.54454 8.45463 -9.37387 -0.270989 -1.41147 29.3803 17.791 4.18058 -12.3829 0.0 0.0 0.0 0.0 0.0 
3570.59283064 740.635 -1478.48627138 0.704526888401 59.0440162053 -7.95484313258 -0.752131 0.605786 3.91306 -0.743684 0.355759 3.94361 -0.712993 -0.530456 3.92396 -0.734462 0.0954149 3.95845 -5.9869 15.9947 -1.8027 -5.84968 30.9241 1.20671 -0.0 0.0 -0.0 -3.84916 13.0458 -4.84967 -3.22495 -22.6213 69.3549 1.35373 -33.844 0.41188 -29.7221 -1.9302 3.22915 -1.90637 21.0046 -2.78496 -0.0 0.0 -0.0 12.7445 23.3559 -25.3697 -12.0346 11.5627 -68.7422 0.210875 5.9637 -0.0109845 84.2157 4.33286 8.82933 0.3659 8.11291 0.9736 0.0 0.0 0.0 -11.1033 1.88606 10.0392 -4.97437 0.17261 0.743665 28.0339 22.1173 -3.81718 -29.9413 0.0 0.0 -0.0 0.0 -0.0 3.90748 -7.54454 8.45463 -9.37387 -0.270989 -1.41147 29.3803 17.791 4.18058 -12.3829 0.0 0.0 0.0 0.0 0.0 
3556.40509533 717.983 -1497.95070648 -0.438767243567 58.6917485667 -8.28415084224 -1.23939 1.18415 3.70345 -1.23226 0.946259 3.77116 -1.16214 0.0545033 3.88752 -1.1826 0.667325 3.83029 -3.27817 17.6415 -1.51197 -2.76355 33.3536 0.967239 -0.0 0.0 -0.0 -4.14751 18.0152 -4.23513 -1.66927 -17.6029 67.8149 2.39099 -49.8185 1.11046 -30.5816 -2.00966 3.30552 -2.13394 22.1848 -3.53899 -0.0 0.0 -0.0 13.3475 26.3413 -26.4405 -8.77116 12.3541 -67.3212 0.17007 4.81579 -0.0071515 80.2577 3.86829 8.62423 3.20357 2.59925 -20.8893 0.0 0.0 0.0 2.29828 7.51154 7.69398 -30.9307 0.00729432 4.68954 37.0432 21.0718 -4.77008 -23.4441 0.0 0.0 -0.0 0.0 -0.0 2.54555 -0.458049 9.11965 -13.7699 -0.317825 -2.0842 36.4797 11.5 4.74306 1.24565 -0.0 -0.0 0.0 0.0 0.0 
3557.46159449 717.983 -1498.73313485 -0.409095664252 56.1285859257 -8.31935851834 -1.23939 1.18415 3.70345 -1.23226 0.946259 3.77116 -1.16214 0.0545033 3.88752 -1.1826 0.667325 3.83029 -3.27817 17.6415 -1.51197 -2.76355 33.3536 0.967239 -0.0 0.0 -0.0 -4.14751 18.0152 -4.23513 -1.66927 -17.6029 67.8149 2.39099 -49.8185 1.11046 -30.5816 -2.00966 3.30552 -2.13394 22.1848 -3.53899 -0.0 0.0 -0.0 13.3475 26.3413 -26.4405 -8.77116 12.3541 -67.3212 0.17007 4.81579 -0.0071515 80.2577 3.86829 8.62423 3.20357 2.59925 -20.8893 0.0 0.0 0.0 2.29828 7.51154 7.69398 -30.9307 0.00729432 4.68954 37.0432 21.0718 -4.77008 -23.4441 0.0 0.0 -0.0 0.0 -0.0 2.54555 -0.458049 9.11965 -13.7699 -0.317825 -2.0842 36.4797 11.5 4.74306 1.24565 -0.0 -0.0 0.0 0.0 0.0 
